# xmcd
#
# Track frame offsets:
#	150
#	32722
#	56512
#	74890
#	96065
#	123267
#	145282
#	161622
#	189987
#	208730
#	225630
#	245367
#	265470
#	292547
#	311590
#
# Disc length: 4465 seconds
#
# Revision: 0
# Processed by: cddbd v1.4PL0 Copyright (c) Steve Scherf et al.
# Submitted via: audiograbber 1.81.03
#
DISCID=d8116f0f
DTITLE=Chris De Burgh - High on Emotion-Live From Dublin
DYEAR=1900
DGENRE=
TTITLE0=Last Night
TTITLE1=Sailing away
TTITLE2=The Revolution
TTITLE3=I'm not scared anymore
TTITLE4=Spanish Train
TTITLE5=Borderline
TTITLE6=The Risen Lord
TTITLE7=The last Time I cried
TTITLE8=The Lady in Red
TTITLE9=A Spaceman came travelling
TTITLE10=Patricia the Stripper
TTITLE11=Missing You
TTITLE12=Say Goodbye to it all
TTITLE13=Don't play the Ferryman
TTITLE14=High on Emotion
EXTD=
EXTT0=
EXTT1=
EXTT2=
EXTT3=
EXTT4=
EXTT5=
EXTT6=
EXTT7=
EXTT8=
EXTT9=
EXTT10=
EXTT11=
EXTT12=
EXTT13=
EXTT14=
PLAYORDER=
